<svg width="1200" height="630" xmlns="http://www.w3.org/2000/svg">
  <rect width="1200" height="630" fill="#FAFAF8"/>
  <rect x="0" y="0" width="1200" height="4" fill="#2563EB"/>

  <!-- Grid lines -->
  <g stroke="#E8E8E5" stroke-width="1">
    <line x1="48" y1="0" x2="48" y2="630"/>
    <line x1="96" y1="0" x2="96" y2="630"/>
    <line x1="144" y1="0" x2="144" y2="630"/>
    <line x1="192" y1="0" x2="192" y2="630"/>
    <line x1="240" y1="0" x2="240" y2="630"/>
    <line x1="0" y1="48" x2="1200" y2="48"/>
    <line x1="0" y1="96" x2="1200" y2="96"/>
    <line x1="0" y1="144" x2="1200" y2="144"/>
    <line x1="0" y1="486" x2="1200" y2="486"/>
    <line x1="0" y1="534" x2="1200" y2="534"/>
    <line x1="0" y1="582" x2="1200" y2="582"/>
    <line x1="960" y1="0" x2="960" y2="630"/>
    <line x1="1008" y1="0" x2="1008" y2="630"/>
    <line x1="1056" y1="0" x2="1056" y2="630"/>
    <line x1="1104" y1="0" x2="1104" y2="630"/>
    <line x1="1152" y1="0" x2="1152" y2="630"/>
  </g>

  <!-- Title -->
  <text x="80" y="260" font-family="system-ui, -apple-system, sans-serif" font-size="72" font-weight="900" fill="#0B0B0F" letter-spacing="-3">Agent Threat Rules</text>

  <!-- Subtitle -->
  <text x="80" y="320" font-family="system-ui, -apple-system, sans-serif" font-size="24" font-weight="300" fill="#6B6B76">The open detection standard for AI agent security.</text>

  <!-- Stats bar -->
  <text x="80" y="400" font-family="ui-monospace, monospace" font-size="16" fill="#6B6B76" letter-spacing="2">
    <tspan>113 RULES</tspan>
    <tspan dx="30">96K SCANNED</tspan>
    <tspan dx="30">751 MALWARE</tspan>
    <tspan dx="30">CISCO SHIPPED</tspan>
  </text>

  <!-- Bottom bar -->
  <rect x="0" y="560" width="1200" height="70" fill="#F3F3F0"/>
  <text x="80" y="602" font-family="ui-monospace, monospace" font-size="14" fill="#808089" letter-spacing="2">AGENTTHREATRULE.ORG</text>
  <text x="1120" y="602" font-family="ui-monospace, monospace" font-size="14" fill="#808089" letter-spacing="1" text-anchor="end">MIT LICENSE</text>
</svg>
